<svg xmlns="http://www.w3.org/2000/svg" class="plasmid ng-isolate-scope" width="800" height="500" ng-class="{'svgBkg': opts.vectorStyle.trackRotate&amp;&amp;rotShow}" >
    <style type="text/css">
           .markerlabel {
               fill: rgba(0, 0, 64, .7);
               cursor: pointer;
               font-size: 12px;
               font-family: Arial;
               stroke-width: 0;
           }

           .markerline {
               stroke: #666;
               stroke-width: 0.7;
               fill: none;
           }

           .scale1 {
               stroke: #999;
           }

           .scale2 {
               font-size: 9px;
               fill: #999;
               font-weight: 300;
               stroke-width: 0
           }

           .plasmid .marker-off {
               stroke: #d61111;
               stroke-width: 0.3px;
           }

           .pla-outRing-s1 {
               fill: #ccc;
               stroke: #999;
           }

           .trackCen {
               font-size: 20px;
               font-weight: 400;
               fill: #000;
               stroke-width: 0;
           }

           .trackCenBp {
               font-size: 10px;
               fill: #000;
               stroke-width: 0;
           }
           tspan.red {
               fill: red;
           }
           tspan.blue {
               fill: blue;
           }
           tspan.bold {
               font-weight: bold;
           }
       </style>
       <defs>
            <filter id="f1" x="-50%" y="-50%" width="200%" height="200%">
                <feOffset result="offOut" in="SourceGraphic"  />
                <feGaussianBlur result="blurOut" in="offOut" stdDeviation="3" />
                <feBlend in="SourceGraphic" in2="blurOut" mode="normal" />
            </filter>
	    </defs>
           <g class="pla-outRing-s1"><path class="ng-scope ng-isolate-scope pla-outRing-s1" fill-rule="evenodd" d="M 399.975 107 A 143 143 0 1 0 400 107 M 399.974 102 A 148 148 0 1 0 400 102" /></g>
<g><path class='ng-scope ng-isolate-scope' d="M 400.20815730250627 112.00015699089576 A 138 138 0 0 1 418.16093706835284 113.20021796508837 L 417.50293210210816 118.15673180693301 L 425.00460365202963 106.6646596396935 L 420.7929569333315 93.37416259770987 L 420.1349519670868 98.33067643955451 A 153 153 0 0 0 400.23078309625697 97.00017405512358 L 400.20815730250627 112.00015699089576 z" style="fill:#32D7FE;fill-opacity:.5;stroke:#32D7FE;stroke-with:2;filter:url(#f1)"></path>
<g><path d="M 413.3108800400444 97.58011785675876 L 415.2248627909005 75.6635334962927 L 419.1398275085606 30.83415639533942 L 424.1398275085606 30.83415639533942" class="markerline"></path><text text-anchor="start" x="429.1398275085606" y="34.83415639533942">RSV promoter</text></g></g>
<g><path class='ng-scope ng-isolate-scope' d="M 423.71570655656416 114.05307924589488 A 138 138 0 0 1 436.6084455799472 116.94429094465715 L 435.282052624152 121.76514996840146 L 444.2778405494463 111.40085557162408 L 441.91401740312796 97.66085484967994 L 440.58762444733276 102.48171387342424 A 153 153 0 0 0 426.29350074749505 99.27624003349214 L 423.71570655656416 114.05307924589488 z" style="fill:#8F887E;fill-opacity:.5;stroke:#8F887E;stroke-with:2;filter:url(#f1)"></path>
<g><path d="M 436.5118675971832 101.4204471518178 L 441.7619400621376 80.05606700371317 L 527.4804006746908 70.69928208782795 L 532.4804006746908 70.69928208782795" class="markerline"></path><text text-anchor="start" x="537.4804006746908" y="74.69928208782795">5' LTR (truncated)</text></g></g>
<g><path class='ng-scope ng-isolate-scope' d="M 446.52984242123466 120.08089530690617 A 138 138 0 0 1 453.5126489824437 122.79781291627974 L 451.5737848888769 127.40658781061744 L 461.83469196943474 118.29304927588248 L 461.2681053567109 104.36271333892898 L 459.3292412631441 108.97148823326668 A 153 153 0 0 0 451.58743398876015 105.95925349243944 L 446.52984242123466 120.08089530690617 z" style="fill:#DCB1ED;fill-opacity:.5;stroke:#DCB1ED;stroke-with:2;filter:url(#f1)"></path>
<g><path d="M 458.37061689942277 108.57202864079247 L 466.76377749933977 88.23598047149466 L 552.9163212143485 91.8336359832781 L 557.9163212143485 91.8336359832781" class="markerline"></path><text text-anchor="start" x="562.9163212143485" y="95.8336359832781">HIV-1 Ψ</text></g></g>
<g><path class='ng-scope ng-isolate-scope' d="M 499.95198434984707 154.84958841640292 A 138 138 0 0 1 511.90985916789054 169.252347272364 L 507.8551541255757 172.17798686394502 L 521.3604097060692 169.73854626300968 L 528.1286793371501 157.54978890603996 L 524.0739742948352 160.47542849762095 A 153 153 0 0 0 510.81633047483047 144.5071523747076 L 499.95198434984707 154.84958841640292 z" style="fill:#393D84;fill-opacity:.5;stroke:#393D84;stroke-with:2;filter:url(#f1)"></path>
<g><path d="M 519.6818593736357 154.68340891078145 L 536.8910156234394 140.97775529010949 L 572.0915624980382 112.9434637932805 L 577.0915624980382 112.9434637932805" class="markerline"></path><text text-anchor="start" x="582.0915624980382" y="116.9434637932805">RRE</text></g></g>
<g><path class='ng-scope ng-isolate-scope' d="M 534.9180123474353 220.99775966899603 A 138 138 0 0 1 536.160222000582 227.54128354619948 L 531.2268806237494 228.3550051568444 L 544.4052999881385 232.18541790173722 L 555.8935875079128 224.2863971036197 L 550.9602461310801 225.10011871426465 A 153 153 0 0 0 549.5830136895478 217.84534224171298 L 534.9180123474353 220.99775966899603 z" style="fill:#B38A1C;fill-opacity:.5;stroke:#B38A1C;stroke-with:2;filter:url(#f1)"></path>
<g><path d="M 550.8652763810037 224.53103098899822 L 572.5583226580108 220.8688262946058 L 616.9304627700707 213.37795305607585 L 621.9304627700707 213.37795305607585" class="markerline"></path><text text-anchor="start" x="626.9304627700707" y="217.37795305607585">cPPT/CTS</text></g></g>
<g><path class='ng-scope ng-isolate-scope' d="M 537.0367837672317 233.72364000358195 A 138 138 0 0 1 537.9425820981046 253.9804577761429 L 532.944662456869 253.83623829150005 L 545.1479891732115 260.11490182716926 L 557.9342606630473 254.55733571471436 L 552.9363410218117 254.4131162300715 A 153 153 0 0 0 551.9320863506264 231.9544704387539 L 537.0367837672317 233.72364000358195 z" style="fill:#E64FE9;fill-opacity:.5;stroke:#E64FE9;stroke-with:2;filter:url(#f1)"></path>
<g><path d="M 552.9547451707914 246.27898807603725 L 574.9482379404476 245.74394060984653 L 619.9349276965627 244.6495253380928 L 624.9349276965627 244.6495253380928" class="markerline"></path><text text-anchor="start" x="629.9349276965627" y="248.6495253380928">U6 promoter</text></g></g>
<g><path class='ng-scope ng-isolate-scope' d="M 537.6588595431961 259.69733928800076 A 138 138 0 0 1 537.2826807170154 264.05224448798117 L 532.308670546109 263.5431051949384 L 544.0204391768829 270.6969345386651 L 557.1787214006408 266.0888016601524 L 552.2047112297346 265.57966236710956 A 153 153 0 0 0 552.6217790587609 260.75139790626173 L 537.6588595431961 259.69733928800076 z" style="fill:#96B295;fill-opacity:.5;stroke:#96B295;stroke-with:2;filter:url(#f1)"></path>
<g><path d="M 552.1326526469675 266.2682512458199 L 574.0079360341132 268.6074769151535 L 618.7528338714566 273.3922566933358 L 623.7528338714566 273.3922566933358" class="markerline"></path><text text-anchor="start" x="628.7528338714566" y="277.3922566933358">gRNA3</text></g></g>
<g><path class='ng-scope ng-isolate-scope' d="M 536.4134549153619 270.86550545887974 A 138 138 0 0 1 521.6368402181953 315.1803582510347 L 517.2297083262317 312.8187510680262 L 525.3431339285205 323.88740607828225 L 539.2653677860496 324.62678698306865 L 534.8582358940861 322.2651798000602 A 153 153 0 0 0 551.2410043626838 273.133495182671 L 536.4134549153619 270.86550545887974 z" style="fill:#DA1FD7;fill-opacity:.5;stroke:#DA1FD7;stroke-with:2;filter:url(#f1)"></path>
<g><path d="M 544.1280796078357 301.34293202143186 L 564.8523786364134 308.725575841507 L 607.2429902857768 323.8264382007517 L 612.2429902857768 323.8264382007517" class="markerline"></path><text text-anchor="start" x="617.2429902857768" y="327.8264382007517">hPGK promoter</text></g></g>
<g><path class='ng-scope ng-isolate-scope' d="M 518.2430521956214 321.15181380304745 A 138 138 0 0 1 404.0064665518645 387.9418291373896 L 403.8613047202752 382.9439367773393 L 398.2991440491317 395.4900583855625 L 404.58711387822166 407.933398577591 L 404.44195204663237 402.93550621754065 A 153 153 0 0 0 531.0955578690587 328.8857066077265 L 518.2430521956214 321.15181380304745 z" style="fill:#B6AEB8;fill-opacity:.5;stroke:#B6AEB8;stroke-with:2;filter:url(#f1)"></path>
<g><path d="M 474.5179286035439 383.6266377510006 L 485.2329248733345 402.8409255321902 L 507.1499626979063 442.14287781189626 L 512.1499626979063 442.14287781189626" class="markerline"></path><text text-anchor="start" x="517.1499626979063" y="446.14287781189626">EGFP:T2A:PuroR</text></g></g>
<g><path class='ng-scope ng-isolate-scope' d="M 397.34615698860944 387.9744799492678 A 138 138 0 0 1 343.3858485238608 375.85244476225625 L 345.43708589618467 371.292573575218 L 334.9558988733529 380.1518916828584 L 335.1808990345652 394.09192951040933 L 337.2321364068891 389.5320583233711 A 153 153 0 0 0 397.0576957917192 402.9717060307099 L 397.34615698860944 387.9744799492678 z" style="fill:#28F18B;fill-opacity:.5;stroke:#28F18B;stroke-with:2;filter:url(#f1)"></path>
<g><path d="M 363.43210614028874 398.5657737793765 L 358.17397761144133 419.9281726234699 L 347.41871471152626 463.6239884409336 L 342.41871471152626 463.6239884409336" class="markerline"></path><text text-anchor="end" x="337.41871471152626" y="467.6239884409336">WPRE</text></g></g>
<g><path class='ng-scope ng-isolate-scope' d="M 331.7901761362342 369.96424437503885 A 138 138 0 0 1 316.18199631553 359.62911227566417 L 319.2188805069963 355.657042990314 L 306.9937947261527 361.89323384619365 L 304.0344595496648 375.51738941706475 L 307.07134374113105 371.54532013171456 A 153 153 0 0 0 324.3760648466944 383.0038361549344 L 331.7901761362342 369.96424437503885 z" style="fill:#849D18;fill-opacity:.5;stroke:#849D18;stroke-with:2;filter:url(#f1)"></path>
<g><path d="M 312.94917584471233 375.82191388579804 L 300.432063874671 393.91395379094547 L 274.82888029958633 430.92039905147436 L 269.82888029958633 430.92039905147436" class="markerline"></path><text text-anchor="end" x="264.82888029958633" y="434.92039905147436">'3' LTR (ΔU3)'</text></g></g>
<g><path class='ng-scope ng-isolate-scope' d="M 306.2342999741626 351.25212836609745 A 138 138 0 0 1 301.1671278691233 346.31232208996823 L 304.74802903328555 342.82274520265054 L 291.74769065942496 347.2197897674771 L 286.84352321247457 360.27062963923896 L 290.42442437663675 356.78105275192127 A 153 153 0 0 0 296.0423760583107 362.25779449284715 L 306.2342999741626 351.25212836609745 z" style="fill:#673339;fill-opacity:.5;stroke:#673339;stroke-with:2;filter:url(#f1)"></path>
<g><path d="M 290.9896837413113 357.35805022996954 L 275.3149977433299 372.79515549179524 L 197.42361944102362 335.80681814182816 L 192.42361944102362 335.80681814182816" class="markerline"></path><text text-anchor="end" x="187.42361944102362" y="339.80681814182816">SV40 poly(A) signal</text></g></g>
<g><path class='ng-scope ng-isolate-scope' d="M 262.0004145539552 250.33825540613262 A 138 138 0 0 1 286.58763900531403 171.37661687760416 L 290.69678251961426 174.22529017914025 L 283.8982191738282 162.303782926562 L 270.15106494811323 159.98192367145984 L 274.2602084624134 162.83059697299592 A 153 153 0 0 0 247.0004596141677 250.37502229810354 L 262.0004145539552 250.33825540613262 z" style="fill:#979761;fill-opacity:.5;stroke:#979761;stroke-with:2;filter:url(#f1)"></path>
<g><path d="M 254.87462710550292 201.54769208558616 L 234.00692642786282 194.58069356194497 L 191.32299322359896 180.33001476358794 L 186.32299322359896 180.33001476358794" class="markerline"></path><text text-anchor="end" x="181.32299322359896" y="184.33001476358794">AMPR</text></g></g>
<g><path class='ng-scope ng-isolate-scope' d="M 301.4217053177033 153.42712690651547 A 138 138 0 0 1 347.2558007980326 122.47725908472957 L 349.16682250824886 127.09764824832632 L 349.90967325548877 113.39396365230377 L 339.6117139571678 103.99570243034256 L 341.52273566738404 108.6160915939393 A 153 153 0 0 0 290.7066732870188 142.93007548331065 L 301.4217053177033 153.42712690651547 z" style="fill:#A682F2;fill-opacity:.5;stroke:#A682F2;stroke-with:2;filter:url(#f1)"></path>
<g><path d="M 316.977728566579 121.48423269483479 L 305.0398856153682 103.0048413176215 L 280.6215704878914 65.20608622786702 L 275.6215704878914 65.20608622786702" class="markerline"></path><text text-anchor="end" x="270.6215704878914" y="69.20608622786702">ori</text></g></g>
<g><text text-anchor="middle"><tspan x="400" y="250">YKO-LV001-BRAF(c.T1799A)</tspan><tspan x="400" y="270">[gRNA3]</tspan></text></g>
</svg>