<svg xmlns="http://www.w3.org/2000/svg" class="plasmid ng-isolate-scope" width="1000" height="600" ng-class="{'svgBkg': opts.vectorStyle.trackRotate&amp;&amp;rotShow}" >
     <style type="text/css">
            .markerlabel {
                fill: rgba(0, 0, 64, .7);
                cursor: pointer;
                font-size: 12px;
                font-family: Arial;
                stroke-width: 0;
            }

            .markerline {
                stroke: #666;
                stroke-width: 0.7;
                fill: none;
            }

            .scale1 {
                stroke: #999;
            }

            .scale2 {
                font-size: 9px;
                fill: #999;
                font-weight: 300;
                stroke-width: 0
            }

            .plasmid .marker-off {
                stroke: #d61111;
                stroke-width: 0.3px;
            }

            .pla-outRing-s1 {
                fill: #ccc;
                stroke: #999;
            }

            .trackCen {
                font-size: 20px;
                font-weight: 400;
                fill: #000;
                stroke-width: 0;
            }

            .trackCenBp {
                font-size: 10px;
                fill: #000;
                stroke-width: 0;
            }
            tspan.red {
                fill: red;
            }
            tspan.blue {
                fill: blue;
            }
            tspan.bold {
                font-weight: bold;
            }
        </style>
            <g class="pla-outRing-s1">
                <path class="ng-scope ng-isolate-scope pla-outRing-s1" fill-rule="evenodd" d="M 499.975 157 A 143 143 0 1 0 500 157 M 499.974 152 A 148 148 0 1 0 500 152" />

            </g>
<g><path class='marker-off markerhover ng-scope ng-isolate-scope' d="M 501.02750019573034 172.00412411586154 A 128 128 0 0 1 515.3025861818526 172.91801521794298 L 514.8243803636697 176.88932724238225 L 519.7552613279951 169.99238618502906 L 516.6176521818555 161.99690715073496 L 516.1394463636726 165.96821917517423 A 143 143 0 0 0 501.08369161268433 165.00434965344775 L 501.02750019573034 172.00412411586154 z" style="opacity: 0.5;fill:#C467A6"></path>
<g><path d="M 511.3443025026408 157.45068642491267 L 512.9309182372758 137.51371949133403 L 515.2315110524967 108.60511743764499 L 520.2315110524967 108.60511743764499" class="markerline"></path><text class="markerlabel" text-anchor="start" x="525.2315110524967" y="112.60511743764499">U6 promoter</text></g></g>
<g><path class='marker-off markerhover ng-scope ng-isolate-scope' d="M 519.3020134471708 173.46371162040023 A 128 128 0 0 1 522.3434061683326 173.96519448661448 L 521.6451747255722 177.90378215890777 L 526.9518316704891 171.2916134449444 L 524.2635426359237 163.1340783878079 L 523.5653111931633 167.0726660601012 A 143 143 0 0 0 520.357592307563 166.54375834964088 L 519.3020134471708 173.46371162040023 z" style="opacity: 0.5;fill:#F12552"></path>
<g><path d="M 525.4460390665071 159.28220050105318 L 529.0049256492352 139.60138938231935 L 586.1985911190382 128.43717509584755 L 591.1985911190382 128.43717509584755" class="markerline"></path><text class="markerlabel" text-anchor="start" x="596.1985911190382" y="132.43717509584755">gRNA</text></g></g>
<g><path class='marker-off markerhover ng-scope ng-isolate-scope' d="M 527.2393246670994 174.9319417609742 A 128 128 0 0 1 541.0240565763012 178.75220916641638 L 539.7420548082918 182.54120262996588 L 545.9818337256486 176.80129478266906 L 544.549561438327 168.3324771416553 L 543.2675596703176 172.12147060520476 A 143 143 0 0 0 528.7289752348314 168.0922823260275 L 527.2393246670994 174.9319417609742 z" style="opacity: 0.5;fill:#5BEC5A"></path>
<g><path d="M 540.3199389804327 162.80195875809966 L 545.9590912853884 143.61342152147026 L 604.0176413083412 138.61744116339815 L 609.0176413083412 138.61744116339815" class="markerline"></path><text class="markerlabel" text-anchor="start" x="614.0176413083412" y="142.61744116339815">U6 promoter</text></g></g>
<g><path class='marker-off markerhover ng-scope ng-isolate-scope' d="M 544.8267357617094 180.10603117358286 A 128 128 0 0 1 547.700780386996 181.22022246833606 L 546.2101309999024 184.93209051620056 L 552.7593424944807 179.54792745846967 L 551.8000662015035 171.0125853367087 L 550.3094168144098 174.7244533845732 A 143 143 0 0 0 547.2781978736779 173.54932975338818 L 544.8267357617094 180.10603117358286 z" style="opacity: 0.5;fill:#D46118"></path>
<g><path d="M 553.7469283468007 167.48483976056224 L 561.2639812624371 148.95125091588562 L 619.5316651253282 149.74627780861334 L 624.5316651253282 149.74627780861334" class="markerline"></path><text class="markerlabel" text-anchor="start" x="629.5316651253282" y="153.74627780861334">Sample[gRNA2]</text></g></g>
<g><path class='marker-off markerhover ng-scope ng-isolate-scope' d="M 552.1606096101955 183.1100055389993 A 128 128 0 0 1 595.8524167839577 215.16890784226302 L 592.857028759459 217.8198794721923 L 601.1241930362941 215.93961942295087 L 604.089733851329 207.8787358599575 L 601.0943458268304 210.5297074898868 A 143 143 0 0 0 555.0131429482531 176.7175839669133 L 552.1606096101955 183.1100055389993 z" style="opacity: 0.5;fill:#F365CC"></path>
<g><path d="M 586.3710024187442 186.0304867906277 L 598.4508628968902 170.09069473337283 L 654.5053402678233 186.01710729796272 L 659.5053402678233 186.01710729796272" class="markerline"></path><text class="markerlabel" text-anchor="start" x="664.5053402678233" y="190.01710729796272">CBh promoter</text></g></g>
<g><path class='marker-off markerhover ng-scope ng-isolate-scope' d="M 599.1327703284488 219.02658555422641 A 128 128 0 0 1 479.24819984832686 426.30662211643937 L 479.89669360306664 422.35954017530065 L 474.67386609034156 429.0381220461227 L 477.4648420227925 437.16109745457095 L 478.11333577753226 433.2140155134322 A 143 143 0 0 0 604.5540937057858 214.59835195172317 L 599.1327703284488 219.02658555422641 z" style="opacity: 0.5;fill:#74894B"></path>
<g><path d="M 622.663752845375 373.50240634080455 L 639.8195224740988 383.7824631716863 L 664.6953884357483 398.68854557646483 L 669.6953884357483 398.68854557646483" class="markerline"></path><text class="markerlabel" text-anchor="start" x="674.6953884357483" y="402.68854557646483">hCas9</text></g></g>
<g><path class='marker-off markerhover ng-scope ng-isolate-scope' d="M 469.5430370501768 424.32366390946294 A 128 128 0 0 1 458.6979634729263 421.15338121041555 L 459.9886521143973 417.36733804759007 L 453.7357248440882 423.09291955388045 L 455.14856970888087 431.56499990818565 L 456.43925835035196 427.7789567453601 A 143 143 0 0 0 467.87742188885835 431.1226142795117 L 469.5430370501768 424.32366390946294 z" style="opacity: 0.5;fill:#FDC175"></path>
<g><path d="M 457.7567440599486 436.6181076123634 L 451.8485963760253 455.72553525045623 L 443.2817822343365 483.43130532569074 L 438.2817822343365 483.43130532569074" class="markerline"></path><text class="markerlabel" text-anchor="end" x="433.2817822343365" y="487.43130532569074">BGH pA</text></g></g>
<g><path class='marker-off markerhover ng-scope ng-isolate-scope' d="M 454.07523396135343 419.4776793560018 A 128 128 0 0 1 420.19740410569443 400.0776982575547 L 422.6912352273915 396.95027018700614 L 414.87167604103547 400.22683502903595 L 413.33936852102755 408.6781254515633 L 415.8331996427246 405.55069738101474 A 143 143 0 0 0 451.5637233186149 426.0116149457831 L 454.07523396135343 419.4776793560018 z" style="opacity: 0.5;fill:#9F81D7"></path>
<g><path d="M 427.02577608755746 422.97870809362365 L 416.81959092497806 440.17852740741716 L 402.02062243923797 465.11826541241777 L 397.02062243923797 465.11826541241777" class="markerline"></path><text class="markerlabel" text-anchor="end" x="392.02062243923797" y="469.11826541241777">CMV promoter</text></g></g>
<g><path class='marker-off markerhover ng-scope ng-isolate-scope' d="M 416.4125471537007 396.93883497684345 A 128 128 0 0 1 372.60405244076 312.4206499621945 L 376.5851758019862 312.0325046508759 L 368.7882691267141 308.7023951436602 L 361.6559631973878 313.48804956832055 L 365.637086558614 313.099904257002 A 143 143 0 0 0 411.8413583261687 402.2401775146396 L 416.4125471537007 396.93883497684345 z" style="opacity: 0.5;fill:#5218A3"></path>
<g><path d="M 372.0379055669225 363.83339555671597 L 354.1411091427159 372.76114318702594 L 328.1907543276163 385.70637725097527 L 323.1907543276163 385.70637725097527" class="markerline"></path><text class="markerlabel" text-anchor="end" x="318.1907543276163" y="389.70637725097527">EGFP:P2A:Puro</text></g></g>
<g><path class='marker-off markerhover ng-scope ng-isolate-scope' d="M 372.21246581260067 307.3719811654837 A 128 128 0 0 1 372.0222244628107 302.38515587599545 L 376.02152994834785 302.3106197548706 L 368.50999227369914 298.3789299406453 L 361.0241343775835 302.5901302090888 L 365.02343986312064 302.51559408796396 A 143 143 0 0 0 365.2240850367273 307.7751363854711 L 372.21246581260067 307.3719811654837 z" style="opacity: 0.5;fill:#9627D9"></path>
<g><path d="M 357.0366757338546 303.2385050212965 L 337.041805207121 303.69144278651277 L 308.0492429433572 304.3482025460764 L 303.0492429433572 304.3482025460764" class="markerline"></path><text class="markerlabel" text-anchor="end" x="298.0492429433572" y="308.3482025460764">SV40 poly(A) signal</text></g></g>
<g><path class='marker-off markerhover ng-scope ng-isolate-scope' d="M 395.449940815014 226.15363838064928 A 128 128 0 0 1 439.408527729086 187.24950781463053 L 441.30201123755205 190.77296069542334 L 441.3675403618793 182.29492501687045 L 434.2014480808043 177.56001239245035 L 436.0949315892704 181.08346527324312 A 143 143 0 0 0 389.732359453335 222.11516547959104 L 395.449940815014 226.15363838064928 z" style="opacity: 0.5;fill:#AB1B39"></path>
<g><path d="M 406.89689073809126 191.460555346155 L 393.87547685530683 176.2802134365263 L 374.99442672526936 154.26871766756472 L 369.99442672526936 154.26871766756472" class="markerline"></path><text class="markerlabel" text-anchor="end" x="364.99442672526936" y="158.26871766756472">AMPR</text></g></g>
<g><path class='marker-off markerhover ng-scope ng-isolate-scope' d="M 454.3493827650505 180.4173041528661 A 128 128 0 0 1 492.5913832209699 172.2145845668549 L 492.82290249531457 176.2078787991407 L 496.4566046312703 168.54774878587713 L 491.954705216522 161.23302542806903 L 492.18622449086666 165.2263196603548 A 143 143 0 0 0 451.8528646350142 173.87762547372597 L 454.3493827650505 180.4173041528661 z" style="opacity: 0.5;fill:#EAB89B"></path>
<g><path d="M 472.17748077055546 159.7327286081062 L 468.2862193398639 140.11492841343573 L 462.64389026536116 111.66911813116357 L 457.64389026536116 111.66911813116357" class="markerline"></path><text class="markerlabel" text-anchor="end" x="452.64389026536116" y="115.66911813116357">ori</text></g></g>
</svg>